<?xml version="1.0" encoding="UTF-8"?>
<svg id="Layer_2" data-name="Layer 2" xmlns="http://www.w3.org/2000/svg" viewBox="0 0 365.53 301.63">
  <defs>
    <style>
      .cls-1 {
        fill: #14233a;
      }

      .cls-1, .cls-2 {
        stroke: #14233a;
        stroke-miterlimit: 10;
        stroke-width: 4.95px;
      }

      .cls-2 {
        fill: #1f9fcc;
      }
    </style>
  </defs>
  <g id="Logos">
    <g id="Icon">
      <path class="cls-1" d="M163.84,266.96l-111.04.04c-1.37,0-2.47-1.1-2.48-2.47l-.15-57.68c0-.77.36-1.5.97-1.97l114.2-87.46c.61-.47.97-1.2.97-1.97v-61.92c0-1.37-1.11-2.48-2.48-2.48H4.95c-1.37,0-2.48,1.11-2.48,2.48v242.99c0,1.37,1.11,2.48,2.47,2.48l158.88.16c1.37,0,2.48-1.11,2.48-2.48v-27.24c0-1.37-1.11-2.48-2.48-2.48Z"/>
      <path class="cls-1" d="M90.52,211.45c-3.06,18.67,12.85,34.58,31.51,31.51,11.3-1.85,20.42-10.97,22.27-22.27,3.06-18.67-12.85-34.57-31.51-31.51-11.3,1.85-20.42,10.97-22.27,22.27Z"/>
      <path class="cls-1" d="M216.96,80c-3.06,18.67,12.85,34.58,31.51,31.51,11.3-1.85,20.42-10.97,22.27-22.27,3.06-18.67-12.85-34.57-31.51-31.51-11.3,1.85-20.42,10.97-22.27,22.27Z"/>
      <path class="cls-1" d="M204.8,9.55v28.03c0,1.37,1.12,2.49,2.49,2.48l100.78-.6c1.37,0,2.48,1.09,2.49,2.46l.47,58.11c0,.75-.32,1.45-.9,1.93l-104.59,86.52c-.57.47-.9,1.17-.9,1.91v62.5c0,1.37,1.11,2.48,2.48,2.48h153.45c1.37,0,2.48-1.11,2.48-2.48V9.55c0-1.37-1.11-2.48-2.48-2.48h-153.29c-1.37,0-2.48,1.11-2.48,2.48Z"/>
      <g>
        <path class="cls-2" d="M163.84,262.36l-111.04.04c-1.37,0-2.47-1.1-2.48-2.47l-.15-57.68c0-.77.36-1.5.97-1.97l114.2-87.46c.61-.47.97-1.2.97-1.97v-61.92c0-1.37-1.11-2.48-2.48-2.48H4.95c-1.37,0-2.48,1.11-2.48,2.48v242.99c0,1.37,1.11,2.48,2.47,2.48l158.88.16c1.37,0,2.48-1.11,2.48-2.48v-27.24c0-1.37-1.11-2.48-2.48-2.48Z"/>
        <path class="cls-2" d="M90.52,209.86c-3.06,18.67,12.85,34.58,31.51,31.51,11.3-1.85,20.42-10.97,22.27-22.27,3.06-18.67-12.85-34.57-31.51-31.51-11.3,1.85-20.42,10.97-22.27,22.27Z"/>
        <path class="cls-2" d="M216.96,78.41c-3.06,18.67,12.85,34.58,31.51,31.51,11.3-1.85,20.42-10.97,22.27-22.27,3.06-18.67-12.85-34.57-31.51-31.51-11.3,1.85-20.42,10.97-22.27,22.27Z"/>
        <path class="cls-2" d="M204.8,4.95v28.03c0,1.37,1.12,2.49,2.49,2.48l100.78-.6c1.37,0,2.48,1.09,2.49,2.46l.47,58.11c0,.75-.32,1.45-.9,1.93l-104.59,86.52c-.57.47-.9,1.17-.9,1.91v62.5c0,1.37,1.11,2.48,2.48,2.48h153.45c1.37,0,2.48-1.11,2.48-2.48V4.95c0-1.37-1.11-2.48-2.48-2.48h-153.29c-1.37,0-2.48,1.11-2.48,2.48Z"/>
      </g>
    </g>
  </g>
</svg>