<?xml version="1.0" encoding="UTF-8"?>
<svg id="Layer_2" data-name="Layer 2" xmlns="http://www.w3.org/2000/svg" viewBox="0 0 277.34 177.02">
  <defs>
    <style>
      .cls-1 {
        fill: #fff7d9;
      }
    </style>
  </defs>
  <g id="Word-Main">
    <g id="Logo-Group">
      <g id="Wordmakr">
        <g>
          <path class="cls-1" d="M42.97,29.07h21.26v22.78c-1.43,1.33-3.01,2.48-4.74,3.46-1.73.98-3.53,1.81-5.42,2.47-1.88.66-3.82,1.15-5.81,1.47-1.99.32-3.94.48-5.85.48-4.19,0-7.92-.68-11.19-2.03-3.26-1.35-6.03-3.3-8.28-5.85-2.26-2.55-3.97-5.67-5.14-9.36-1.17-3.69-1.75-7.87-1.75-12.54s.64-9.02,1.91-12.74c1.27-3.72,3.04-6.85,5.3-9.4,2.26-2.55,4.95-4.49,8.08-5.81,3.13-1.33,6.56-1.99,10.27-1.99,3.19,0,6,.39,8.44,1.15,2.44.77,4.53,1.87,6.25,3.3,1.72,1.43,3.15,3.15,4.26,5.14,1.12,1.99,1.96,4.21,2.55,6.65l-7.09,1.19c-.43-1.64-1-3.16-1.71-4.54-.72-1.38-1.63-2.56-2.75-3.54-1.11-.98-2.48-1.74-4.1-2.27-1.62-.53-3.57-.8-5.85-.8-2.97,0-5.57.57-7.8,1.71-2.23,1.14-4.09,2.75-5.57,4.82-1.49,2.07-2.61,4.55-3.38,7.45-.77,2.89-1.15,6.09-1.15,9.6s.37,6.7,1.12,9.6c.74,2.89,1.9,5.38,3.46,7.45,1.57,2.07,3.52,3.66,5.85,4.78,2.34,1.11,5.1,1.67,8.28,1.67,2.87,0,5.56-.34,8.08-1.04,2.52-.69,4.79-1.78,6.81-3.26v-13.62h-14.33v-6.37Z"/>
          <path class="cls-1" d="M94.17,52.64c-1.49,1.81-3.37,3.36-5.65,4.66-2.28,1.3-5.12,1.95-8.52,1.95-2.07,0-3.97-.25-5.69-.76-1.73-.5-3.21-1.27-4.46-2.31-1.25-1.04-2.22-2.32-2.91-3.86-.69-1.54-1.04-3.34-1.04-5.42,0-2.81.6-5.1,1.79-6.85,1.19-1.75,2.79-3.13,4.78-4.14,1.99-1.01,4.23-1.72,6.73-2.15,2.5-.42,5.07-.69,7.72-.8l7.09-.24v-1.59c0-3.5-.74-6.02-2.23-7.57-1.49-1.54-3.9-2.31-7.25-2.31s-5.71.55-7.25,1.63c-1.54,1.09-2.55,2.59-3.03,4.5l-6.29-.72c.74-3.77,2.52-6.52,5.33-8.24,2.81-1.72,6.64-2.59,11.47-2.59,2.97,0,5.48.36,7.52,1.08,2.04.72,3.7,1.74,4.98,3.07,1.27,1.33,2.19,2.97,2.75,4.94.56,1.97.84,4.17.84,6.61v26.76h-6.69v-5.65ZM94.01,37.67l-6.61.24c-2.81.11-5.15.37-7.01.8-1.86.43-3.33,1-4.42,1.71-1.09.72-1.86,1.61-2.31,2.67-.45,1.06-.68,2.28-.68,3.66,0,2.07.62,3.73,1.87,4.98,1.25,1.25,3.31,1.87,6.17,1.87,4.09,0,7.27-1.01,9.56-3.03,2.28-2.02,3.42-4.78,3.42-8.28v-4.62Z"/>
          <path class="cls-1" d="M105.96,1.43h6.93v56.86h-6.93V1.43Z"/>
          <path class="cls-1" d="M118.3,1.43h6.93v56.86h-6.93V1.43Z"/>
          <path class="cls-1" d="M166.08,46.74c-.69,3.98-2.46,7.12-5.3,9.4-2.84,2.28-6.92,3.42-12.22,3.42-6.26,0-11.07-1.9-14.41-5.69-3.34-3.8-5.02-9.09-5.02-15.89,0-3.56.48-6.72,1.43-9.48.95-2.76,2.3-5.07,4.02-6.93,1.72-1.86,3.78-3.28,6.17-4.26,2.39-.98,4.99-1.47,7.8-1.47,3.19,0,5.92.51,8.2,1.51,2.28,1.01,4.15,2.4,5.61,4.18,1.46,1.78,2.55,3.89,3.26,6.33.72,2.44,1.08,5.12,1.08,8.04v3.5h-30.58c0,2.07.28,4,.84,5.77.56,1.78,1.35,3.32,2.39,4.62,1.04,1.3,2.32,2.32,3.86,3.07,1.54.74,3.32,1.11,5.33,1.11,3.45,0,5.97-.65,7.57-1.95,1.59-1.3,2.68-3.07,3.26-5.3h6.69ZM159.79,34.24c0-1.96-.21-3.74-.64-5.34-.43-1.59-1.09-2.96-1.99-4.1-.9-1.14-2.07-2.03-3.5-2.67-1.43-.64-3.16-.96-5.18-.96-3.66,0-6.52,1.11-8.56,3.34-2.04,2.23-3.25,5.47-3.62,9.72h23.49Z"/>
          <path class="cls-1" d="M170.3,17.12h6.85v6.37c1.54-2.28,3.34-4.03,5.42-5.26,2.07-1.22,4.27-1.83,6.61-1.83,1.43,0,2.65.11,3.66.32l-.88,6.45c-.53-.11-1.06-.2-1.59-.28-.53-.08-1.12-.12-1.75-.12-1.27,0-2.58.23-3.9.68-1.33.45-2.58,1.21-3.74,2.27-1.17,1.01-2.08,2.18-2.75,3.5-.66,1.33-1,2.87-1,4.62v24.45h-6.93V17.12Z"/>
          <path class="cls-1" d="M198.89,67.05c1.49.53,2.97.8,4.46.8,1.7,0,3.01-.44,3.94-1.31.93-.88,1.84-2.51,2.75-4.9l1.67-4.38-17.44-40.14h8.04l12.98,32.33,11.87-32.33h7.64l-18,45.07c-.74,1.86-1.49,3.49-2.23,4.9-.74,1.41-1.57,2.61-2.47,3.62-.9,1.01-1.98,1.76-3.23,2.27-1.25.5-2.77.76-4.58.76-1.27,0-2.42-.08-3.42-.24-1.01-.16-2.12-.45-3.34-.88l1.35-5.57Z"/>
        </g>
        <g>
          <path class="cls-1" d="M28.16,98.82l-19.3,11.58L0,95.68l31.59-20.01h17.01v98.78h-20.44v-75.62Z"/>
          <path class="cls-1" d="M67.33,123.41c-8.29-4.67-12.44-12.2-12.44-22.59,0-4,.74-7.7,2.22-11.08,1.48-3.38,3.67-6.31,6.58-8.79,2.91-2.48,6.55-4.43,10.94-5.86,4.38-1.43,9.44-2.14,15.15-2.14,6.1,0,11.37.69,15.8,2.07,4.43,1.38,8.08,3.31,10.94,5.79,2.86,2.48,4.95,5.43,6.29,8.86,1.33,3.43,2,7.2,2,11.29,0,10.2-4.15,17.63-12.44,22.3,4.57,2.19,8.24,5.24,11.01,9.15,2.76,3.91,4.15,8.58,4.15,14.01,0,9.43-3.14,16.89-9.43,22.37-6.29,5.48-15.73,8.22-28.31,8.22s-21.83-2.74-28.02-8.22c-6.2-5.48-9.29-12.94-9.29-22.37,0-5.15,1.4-9.72,4.22-13.72,2.81-4,6.36-7.1,10.65-9.29ZM72.05,146.43c0,4.48,1.4,8.05,4.22,10.72,2.81,2.67,7.41,4,13.79,4s10.98-1.38,13.8-4.15c2.81-2.76,4.22-6.38,4.22-10.87,0-4.19-1.31-7.6-3.93-10.22-2.62-2.62-7.32-3.93-14.08-3.93-3.43,0-6.29.36-8.58,1.07-2.29.71-4.12,1.72-5.5,3-1.38,1.29-2.38,2.81-3,4.57-.62,1.77-.93,3.69-.93,5.79ZM73.76,102.25c0,4.57,1.26,7.98,3.79,10.22,2.52,2.24,6.65,3.36,12.37,3.36s9.79-1.17,12.22-3.5c2.43-2.33,3.64-5.79,3.64-10.36,0-3.72-1.17-6.91-3.5-9.58-2.34-2.67-6.46-4-12.37-4-2.96,0-5.46.38-7.5,1.14-2.05.76-3.72,1.79-5,3.07-1.29,1.29-2.22,2.77-2.79,4.43-.57,1.67-.86,3.41-.86,5.22Z"/>
          <path class="cls-1" d="M144.82,123.41c-8.29-4.67-12.44-12.2-12.44-22.59,0-4,.74-7.7,2.22-11.08,1.48-3.38,3.67-6.31,6.58-8.79,2.91-2.48,6.55-4.43,10.94-5.86,4.38-1.43,9.44-2.14,15.15-2.14,6.1,0,11.37.69,15.8,2.07,4.43,1.38,8.08,3.31,10.94,5.79,2.86,2.48,4.95,5.43,6.29,8.86,1.33,3.43,2,7.2,2,11.29,0,10.2-4.15,17.63-12.44,22.3,4.57,2.19,8.24,5.24,11.01,9.15,2.76,3.91,4.15,8.58,4.15,14.01,0,9.43-3.14,16.89-9.43,22.37-6.29,5.48-15.73,8.22-28.31,8.22s-21.83-2.74-28.02-8.22c-6.2-5.48-9.29-12.94-9.29-22.37,0-5.15,1.4-9.72,4.22-13.72,2.81-4,6.36-7.1,10.65-9.29ZM149.53,146.43c0,4.48,1.4,8.05,4.22,10.72,2.81,2.67,7.41,4,13.79,4s10.98-1.38,13.8-4.15c2.81-2.76,4.22-6.38,4.22-10.87,0-4.19-1.31-7.6-3.93-10.22-2.62-2.62-7.32-3.93-14.08-3.93-3.43,0-6.29.36-8.58,1.07-2.29.71-4.12,1.72-5.5,3-1.38,1.29-2.38,2.81-3,4.57-.62,1.77-.93,3.69-.93,5.79ZM151.25,102.25c0,4.57,1.26,7.98,3.79,10.22,2.52,2.24,6.65,3.36,12.37,3.36s9.79-1.17,12.22-3.5c2.43-2.33,3.64-5.79,3.64-10.36,0-3.72-1.17-6.91-3.5-9.58-2.34-2.67-6.46-4-12.37-4-2.96,0-5.46.38-7.5,1.14-2.05.76-3.72,1.79-5,3.07-1.29,1.29-2.22,2.77-2.79,4.43-.57,1.67-.86,3.41-.86,5.22Z"/>
          <path class="cls-1" d="M206.71,159.43c4.1-3.62,8.15-7.08,12.15-10.36,4-3.29,8.05-6.74,12.15-10.36,4-3.52,7.5-6.72,10.51-9.58,3-2.86,5.5-5.62,7.5-8.29,2-2.67,3.5-5.31,4.5-7.94,1-2.62,1.5-5.5,1.5-8.65,0-4.1-1.17-7.46-3.5-10.08-2.34-2.62-5.5-3.93-9.51-3.93-4.77,0-8.51,1.07-11.22,3.22-2.72,2.14-4.74,6.22-6.08,12.22l-19.44-2.29c.86-4.1,2.1-7.98,3.72-11.65,1.62-3.67,3.84-6.91,6.65-9.72,2.81-2.81,6.36-5.03,10.65-6.65,4.29-1.62,9.58-2.43,15.87-2.43,11.05,0,19.44,2.72,25.16,8.15,5.72,5.43,8.58,12.82,8.58,22.16,0,4-.5,7.7-1.5,11.08-1,3.38-2.5,6.7-4.5,9.94-2,3.24-4.55,6.51-7.65,9.79-3.1,3.29-6.79,6.84-11.08,10.65-2.29,1.91-4.6,3.81-6.93,5.72-2.34,1.91-4.84,4.1-7.5,6.58h40.6l-2.15,17.44h-68.48v-15.01Z"/>
        </g>
      </g>
    </g>
  </g>
</svg>